<svg width="100" height="100" viewBox="0 0 100 100" xmlns="http://www.w3.org/2000/svg">
  <g transform="translate(12.5, 92.5) scale(0.059192, -0.059192)">
    <path d="M 678.00 1436.00 Q 696.00 1436.00 722.00 1427.00 Q 722.00 1427.00 732.50 1416.00 Q 743.00 1405.00 752.00 1387.00 Q 761.00 1369.00 771.00 1343.00 L 1230.00 117.00 Q 1235.00 103.00 1239.00 81.00 Q 1239.00 81.00 1239.00 70.00 Q 1239.00 34.00 1196.00 0.00 Q 1196.00 0.00 1172.00 0.00 L 605.00 0.00 Q 579.00 0.00 544.00 13.00 Q 544.00 13.00 532.00 22.00 Q 520.00 31.00 513.50 41.00 Q 507.00 51.00 505.00 59.00 L 494.00 94.00 L 213.00 94.00 L 206.00 64.00 Q 203.00 49.00 195.00 26.00 Q 195.00 26.00 189.00 17.50 Q 183.00 9.00 172.50 4.50 Q 162.00 0.00 145.00 0.00 L 42.00 0.00 Q 10.00 0.00 10.00 25.00 Q 10.00 34.00 17.00 59.00 Q 17.00 59.00 23.00 76.00 L 441.00 1341.00 Q 456.00 1388.00 494.00 1434.00 Q 494.00 1434.00 529.00 1436.00 Z M 244.00 217.00 L 460.00 217.00 L 349.00 608.00 Z" stroke-width='50' stroke="oklch(0.45 0.05 45)" fill='none' />
  </g>
</svg>
